<svg width="494" height="159" viewBox="0 0 494 159" fill="none" xmlns="http://www.w3.org/2000/svg">
<g clip-path="url(#clip0_357_16)">
<path fill-rule="evenodd" clip-rule="evenodd" d="M46.1906 89.7525H78.6939L70.7647 130.936H4.60963C1.93511 130.936 -0.471964 129.77 0.0629409 127.187L16.0157 43.9392C17.6204 35.4663 23.4886 25.3083 29.1995 19.245C33.9192 14.2527 36.4994 12.0321 42.2889 8.28388C44.5387 6.83498 46.7098 5.82706 49.0696 4.72464C49.3214 4.59865 49.5888 4.48841 49.8563 4.36242C54.4029 2.22058 62.1433 0 68.3734 0H105.408C107.012 0 108.523 1.87411 108.161 3.38599L104.778 21.0404C104.715 21.5916 96.6447 30.8519 92.4913 35.6553C91.2012 37.1357 90.2887 38.1909 90.1 38.4271C89.4549 39.183 88.1334 40.7107 86.3242 42.7895C75.7047 55.0736 48.5662 86.4767 46.2063 89.7525H46.1906ZM128.188 69.2475H95.685L103.614 28.0644H169.769C172.444 28.0644 174.851 29.1353 174.316 31.8126L158.379 115.061C156.774 123.534 150.906 133.597 145.195 139.66C140.475 144.747 137.895 146.968 132.106 150.622C129.824 152.165 127.622 153.204 125.215 154.323C124.995 154.433 124.774 154.527 124.538 154.638C119.992 156.779 112.251 159 106.116 159H68.987C67.3822 159 65.9663 157.126 66.2338 155.52L69.6163 137.96C69.6792 137.408 77.9073 127.912 82.0292 123.14C83.2563 121.723 84.1216 120.715 84.3104 120.494C88.7627 115.407 125.451 73.0745 128.204 69.2475H128.188Z" fill="url(#paint0_linear_357_16)"/>
<path d="M245.789 84.9333C245.789 100.414 234.508 111.801 220.664 111.801C213.993 111.801 208.691 109.58 205.875 104.446L204.601 111.029H189.12L201.769 47.5457H218.005L213.915 68.1608C217.376 65.3261 221.749 63.7984 226.217 63.8929C236.207 63.8929 245.789 71.4996 245.789 84.9491V84.9333ZM229.38 85.768C229.38 80.3819 226.139 76.8699 220.569 76.8699C214.166 76.8699 209.541 82.0828 209.541 89.8785C209.541 95.2645 212.782 98.6978 218.351 98.6978C224.754 98.7293 229.38 93.5007 229.38 85.7995V85.768Z" fill="black"/>
<path d="M261.175 48.8528H277.427L264.793 112.336H248.558L261.191 48.8528H261.175Z" fill="black"/>
<path d="M284.506 66.3025H300.663L291.429 112.698H275.271L284.506 66.3025ZM285.529 53.1207C285.529 47.9079 289.666 43.8762 295.959 43.8762C301.686 43.8762 305.368 47.1834 305.368 51.6561C305.368 57.2154 301.183 61.1526 294.858 61.1526C289.132 61.1526 285.545 57.5619 285.545 53.105L285.529 53.1207Z" fill="black"/>
<path d="M356.907 81.1694C356.907 83.0907 356.703 85.0121 356.309 86.9019L351.181 112.588H334.945L339.727 88.4611C339.963 87.4532 340.073 86.4137 340.073 85.3743C340.073 81.3584 338.028 79.2165 333.655 79.2165C328.101 79.2165 324.246 82.5238 322.799 89.658L318.189 112.588H301.938L311.173 66.1923H326.559L325.615 70.9799C329.58 67.3419 334.772 65.3576 340.152 65.4206C350.064 65.4206 356.907 70.8224 356.907 81.1694Z" fill="black"/>
<path d="M396.742 86.5397L412.301 112.384H393.328L383.841 96.556L377.171 102.352L375.204 112.352H358.952L371.601 48.8686H387.837L381.261 81.8151L399.983 65.9875H420.498L396.726 86.5555L396.742 86.5397Z" fill="black"/>
<path d="M441.155 109.25L455.597 90.5242L463.967 109.013L464.297 109.738H481.32L480.423 107.942L466.405 79.6732L489.721 51.3096L491.388 49.278H473.941L473.564 49.7505L459.042 68.4128L450.751 50.0025L450.421 49.278H433.509L434.374 51.0576L448.077 79.3268L424.919 107.69L423.267 109.722H440.793L441.17 109.234L441.155 109.25Z" fill="url(#paint1_linear_357_16)" stroke="url(#paint2_linear_357_16)" stroke-width="1.58"/>
</g>
<defs>
<linearGradient id="paint0_linear_357_16" x1="155.704" y1="126.526" x2="16.1591" y2="30.9082" gradientUnits="userSpaceOnUse">
<stop stop-color="#CE46FF"/>
<stop offset="1" stop-color="#FF4747"/>
</linearGradient>
<linearGradient id="paint1_linear_357_16" x1="430.787" y1="48.0969" x2="483.995" y2="110.943" gradientUnits="userSpaceOnUse">
<stop stop-color="#FF4747"/>
<stop offset="1" stop-color="#CE46FF"/>
</linearGradient>
<linearGradient id="paint2_linear_357_16" x1="431.542" y1="47.2779" x2="482.391" y2="110.71" gradientUnits="userSpaceOnUse">
<stop stop-color="#FF4747"/>
<stop offset="1" stop-color="#CE46FF"/>
</linearGradient>
<clipPath id="clip0_357_16">
<rect width="494" height="159" fill="white"/>
</clipPath>
</defs>
</svg>
